<?xml version="1.0" encoding="utf-8"?>
<!-- Generator: Adobe Illustrator 26.5.0, SVG Export Plug-In . SVG Version: 6.00 Build 0)  -->
<svg version="1.1" xmlns="http://www.w3.org/2000/svg" xmlns:xlink="http://www.w3.org/1999/xlink" x="0px" y="0px"
	 viewBox="0 0 595.3 595.3" style="enable-background:new 0 0 595.3 595.3;" xml:space="preserve">
<style type="text/css">
	.st0{display:none;}
	.st1{display:inline;}
	.st2{display:none;fill:none;stroke:#000000;stroke-miterlimit:10;}
	.st3{fill:none;stroke:#000000;stroke-miterlimit:10;}
	.st4{display:none;enable-background:new    ;}
	.st5{font-family:'AbrilDisplay-Regular';}
	.st6{font-size:297.256px;}
	.st7{enable-background:new    ;}
	.st8{font-family:'PMingLiU-ExtB';}
	.st9{font-size:112px;}
	.st10{font-size:180px;}
	.st11{display:inline;fill:none;}
	.st12{display:inline;fill:none;stroke:#000000;stroke-linecap:round;stroke-miterlimit:10;}
	.st13{fill:none;}
</style>
<g id="Calque_1" class="st0">
	<g id="Calque_3" class="st1">
		<g id="Calque_1_00000002381222866163635970000010407319276883191213_">
			<g id="Calque_1_00000049209002806407494960000012668113126574853016_">
				<g>
					<g>
						<path d="M195.9,69.9l-13.8,6l-11.7-26.4l3-1.5l10.5,23.4l10.5-4.8L195.9,69.9z"/>
						<path d="M223.9,48.3c1.2,3.9,1.2,7.2,0,9.6c-1.2,2.4-3.6,4.2-6.9,5.4c-3.3,0.9-6.3,0.9-8.4-0.6c-2.1-1.5-3.9-3.9-5.1-7.5
							l-5.1-16.8l3.3-0.9l5.1,16.8c0.9,2.7,2.1,4.8,3.6,5.7c1.5,0.9,3.6,1.2,6,0.6c2.4-0.6,3.9-1.8,4.5-3.6c0.6-1.8,0.6-3.9-0.3-6.6
							l-5.1-17.1l3.3-0.9L223.9,48.3z"/>
						<path d="M261.4,51.6c-1.2,0.9-2.4,1.5-3.9,2.1c-1.2,0.6-2.7,0.9-4.2,1.2c-4.2,0.6-7.8,0-10.8-2.4c-2.7-2.1-4.5-5.4-5.1-9.6
							c-0.9-4.8,0-8.7,2.1-11.7c2.1-3,5.4-5.1,9.9-5.7c1.2-0.3,2.7-0.3,3.9-0.3s2.4,0.3,3.9,0.6l-0.9,3c-1.2-0.3-2.1-0.6-3.3-0.6
							c-0.9,0-2.1,0-3.3,0.3c-3.3,0.6-5.7,2.1-7.5,4.5c-1.8,2.4-2.1,5.7-1.5,9.3s2.1,6,4.2,7.8c2.1,1.8,4.8,2.4,8.1,1.8
							c1.2-0.3,2.4-0.6,3.3-0.9c1.2-0.3,2.1-0.9,3.3-1.8L261.4,51.6z"/>
						<path d="M277.7,51.9l-3.3,0.3l-1.8-28.8l3.3-0.3L277.7,51.9z"/>
						<path d="M308,52.2l-15.3-0.6l0.9-28.8l14.7,0.6v3L296.9,26l-0.3,9.6l10.5,0.3v3l-10.5-0.3l-0.3,10.2l12,0.3L308,52.2z"/>
						<path d="M373.2,65.1l-14.7-4.5l8.4-27.6l14.1,4.2l-0.9,3l-10.8-3.3l-2.7,9.3l9.9,3l-0.9,3l-9.9-3l-3,9.6l11.4,3.6L373.2,65.1z
							"/>
						<path d="M405.1,78.6l-3-1.5l5.4-12l-13.5-6.3l-5.4,12l-3-1.5l12-26.4l3,1.5l-5.1,11.4l13.5,6.3l5.1-11.4l3,1.5L405.1,78.6z"/>
						<path d="M435.4,96.6l-3.3-2.1l0.3-9.6c0-1.8,0-3-0.3-3.9c-0.3-0.6-0.9-1.2-1.8-1.8l-2.7-1.8l-6.3,9.9l-3-1.8l15.3-24.3
							l7.2,4.5c2.1,1.2,3.6,3,4.2,5.1c0.6,2.1,0.3,4.2-0.9,6.3c-1.2,1.8-2.4,3-4.2,3.6c-1.5,0.6-3.3,0.6-5.4,0.3l0,0
							c0.3,0.6,0.6,1.2,0.6,1.8c0,0.6,0.3,1.5,0.3,2.4L435.4,96.6z M434.8,65.7l-5.7,9.3l3.9,2.4c1.5,0.9,3,1.2,4.5,0.9
							c1.5-0.3,2.7-1.2,3.6-2.7c0.9-1.2,1.2-2.7,0.6-3.9c-0.3-1.2-1.2-2.4-3-3.6L434.8,65.7z"/>
						<path d="M444.1,100.6l3-0.9c0.3,1.2,0.9,2.4,1.8,3.6c0.6,0.9,1.5,2.1,3,3c1.5,1.2,2.7,1.8,4.2,1.8c1.5,0,2.7-0.6,3.6-1.8
							s1.2-2.4,0.9-3.6c-0.3-1.2-0.9-3-2.1-4.8c-1.5-2.4-2.4-4.5-2.7-6.3c-0.3-1.8,0.3-3.3,1.5-5.1c1.5-1.8,3.3-2.7,5.7-2.7
							c2.1,0,4.5,0.9,6.6,2.4c0.9,0.9,1.8,1.8,2.7,2.7c0.9,0.9,1.5,2.1,2.1,3.3l-2.7,1.2c-0.6-1.2-1.2-2.1-1.8-3
							c-0.6-0.9-1.5-1.5-2.4-2.4c-1.2-1.2-2.7-1.5-3.9-1.5s-2.4,0.6-3.3,1.8c-0.9,0.9-1.2,2.1-0.9,3.3s0.9,2.7,2.1,4.8
							c1.5,2.7,2.4,4.8,2.7,6.6c0.3,1.8-0.3,3.6-1.8,5.1c-1.5,1.8-3.3,2.7-5.7,3c-2.4,0.3-4.5-0.9-6.9-2.7c-1.2-1.2-2.4-2.4-3.3-3.6
							C445.3,103.6,444.7,102.1,444.1,100.6z"/>
						<path d="M464.6,120.7l28.5-12l2.4,2.4L482.3,139l-2.7-2.7l3.6-7.5l-8.7-9l-7.5,3.3L464.6,120.7z M477.8,118.6l7.2,7.5l6-12
							c0-0.3,0.3-0.3,0.3-0.6c0.3-0.3,0.3-0.6,0.6-0.9l0,0c-0.3,0.3-0.6,0.3-0.9,0.6c-0.3,0.3-0.6,0.3-0.9,0.3L477.8,118.6z"/>
						<path d="M506.6,172.1l-1.8-2.7l15.9-11.1c0.6-0.3,1.2-0.9,2.1-1.5c0.9-0.6,1.8-0.9,2.7-1.5l0,0c-0.6,0.3-1.2,0.3-1.5,0.6
							c-0.3,0.3-0.9,0.3-1.2,0.3l-23.7,4.5l-0.9-1.5l12.3-20.7c0.3-0.3,0.3-0.6,0.9-1.2c0.3-0.3,0.6-0.9,1.2-1.5l0,0
							c-0.3,0.3-0.9,0.9-1.8,1.5s-1.8,1.2-2.7,2.1l-15.9,11.1l-1.8-2.7l23.7-16.5l2.7,3.6l-11.4,18.9c-0.3,0.6-0.9,1.2-1.2,1.8
							c-0.3,0.6-0.6,0.9-0.9,1.2l0,0c0.9-0.3,1.5-0.3,2.1-0.6s1.2-0.3,1.5-0.3l21.6-3.9l2.4,3.6L506.6,172.1z"/>
						<path class="st0" d="M540.3,220.1l-10.2,3.3l-0.9-3.3l27.6-8.7l2.4,7.5c0.9,3,0.9,5.4,0,7.5c-0.9,2.1-2.7,3.6-5.4,4.5
							c-2.7,0.9-5.1,0.6-7.5-0.6c-2.4-1.2-3.9-3.3-4.8-6.6L540.3,220.1z M554.7,215.3l-11.7,3.6l1.2,3.3c0.6,2.1,1.8,3.9,3.3,4.5
							c1.5,0.9,3,0.9,5.1,0.3c1.8-0.6,3-1.5,3.6-3s0.6-3,0-5.4L554.7,215.3z"/>
						<path class="st0" d="M539.1,260.7c-0.6-3.9,0-7.5,2.4-10.5c2.1-3,5.4-4.8,9.6-5.4c4.5-0.9,8.4-0.3,11.7,1.8
							c3,2.1,5.1,5.1,5.7,9.3c0.6,3.9,0,7.2-2.4,10.2c-2.1,3-5.4,4.8-9.6,5.4c-4.8,0.9-8.4,0.3-11.7-1.8
							C541.8,267.9,540,264.9,539.1,260.7z M542.1,260.4c0.6,3,2.1,5.4,4.2,6.9c2.4,1.5,5.4,1.8,9,1.2c3.9-0.6,6.6-2.1,8.4-4.2
							c1.8-2.1,2.4-4.8,1.8-7.8c-0.6-3-2.1-5.1-4.5-6.6s-5.4-1.8-9-1.2s-6.3,2.1-8.1,4.2C542.4,254.7,541.8,257.4,542.1,260.4z"/>
						<path class="st0" d="M543.6,307.9V304l8.1-5.1c1.5-0.9,2.4-1.8,3-2.4c0.3-0.6,0.6-1.5,0.6-2.4v-3.3l-11.7,0.3v-3.3l28.8-0.9
							l0.3,8.7c0,2.4-0.6,4.5-1.8,6.3c-1.2,1.8-3.3,2.7-5.7,2.7c-2.1,0-3.9-0.3-5.1-1.5c-1.5-0.9-2.4-2.4-3-4.2l0,0
							c-0.3,0.6-0.6,1.2-1.2,1.5c-0.3,0.6-0.9,0.9-1.8,1.5L543.6,307.9z M568.8,289.8l-10.8,0.3v4.5c0,1.8,0.6,3,1.8,4.2
							c1.2,1.2,2.4,1.5,4.2,1.5c1.5,0,2.7-0.6,3.6-1.5c0.9-0.9,1.2-2.4,1.2-4.5L568.8,289.8z"/>
						<path class="st0" d="M567.3,338.5l0.6-8.4l-25.8-2.4l0.3-3.3l25.8,2.4l0.6-8.4l3,0.3l-1.8,20.1L567.3,338.5z"/>
						<path class="st0" d="M561.9,368l2.1-11.1l-9.9-2.1L552,365l-3-0.6l2.1-10.2l-12.6-2.4l0.6-3.3l28.2,5.7l-3,14.4L561.9,368z"/>
						<path class="st0" d="M529.1,386c1.2-3.9,3.6-6.6,6.9-8.1c3.3-1.5,7.2-1.5,11.1,0c4.5,1.5,7.5,3.9,9.3,7.2s2.1,6.9,0.6,11.1
							c-1.2,3.9-3.6,6.3-6.9,7.8s-6.9,1.5-11.1,0c-4.5-1.5-7.5-3.9-9.3-7.2C527.9,393.5,527.9,389.9,529.1,386z M532.2,386.9
							c-0.9,3-0.9,5.7,0.6,8.1c1.5,2.4,3.9,4.2,7.2,5.4c3.6,1.2,6.6,1.5,9.3,0.3c2.4-0.9,4.2-3,5.4-6c0.9-3,0.9-5.7-0.6-8.1
							c-1.5-2.4-3.9-4.2-7.2-5.4c-3.3-1.2-6.3-1.2-9-0.3C534.9,382.4,533.1,384.2,532.2,386.9z"/>
						<path class="st0" d="M512.9,424.4l6.6-13.5l25.8,12.9l-1.5,3l-23.1-11.4l-5.1,10.5L512.9,424.4z"/>
						<path class="st0" d="M505.1,437.7l1.8-3l24.6,15.3l-1.8,3L505.1,437.7z"/>
						<path class="st0" d="M489.2,459.3c2.4-3.3,5.7-5.1,9.3-5.1s7.2,0.9,10.5,3.6c3.6,3,5.7,6,6.3,9.9c0.6,3.6-0.3,7.2-3,10.5
							c-2.4,3-5.4,4.8-9,5.1c-3.6,0.3-7.2-0.9-10.5-3.6c-3.6-3-6-6.3-6.6-9.9C485.9,466.2,486.8,462.6,489.2,459.3z M491.6,461.1
							c-2.1,2.4-2.7,5.1-2.1,7.8c0.6,2.7,2.1,5.1,5.1,7.5c3,2.4,6,3.6,8.7,3.3c2.7-0.3,5.1-1.5,6.9-3.9c1.8-2.4,2.4-5.1,2.1-7.8
							c-0.6-2.7-2.1-5.4-5.1-7.5c-3-2.1-5.7-3.3-8.4-3C495.8,457.5,493.7,459,491.6,461.1z"/>
					</g>
				</g>
				<path class="st2" d="M154.8,72.6C75.8,119.2,22.6,205.4,22.6,304c0,148.4,120.2,268.6,268.6,268.6c74.8,0,142.7-30.6,191.4-80.2
					"/>
				<path class="st3" d="M532.8,184.9c9.3,18.1,29.2,61.4,29.2,118.4c0,148.8-120.6,269.3-269.3,269.3S23.3,452,23.3,303.3
					c0-94.9,53.5-184,131-231.2"/>
			</g>
		</g>
		<g id="Calque_2_00000119077999362144884460000000411963870912032442_">
			<g id="Calque_2_00000142867482680827989130000009099175740819396004_">
				<text transform="matrix(1 0 0 1 241.7467 405.1377)" class="st4 st5 st6">P</text>
				<text transform="matrix(-1 0 0 1 343.6403 405.1377)" class="st5 st6">E</text>
				<text transform="matrix(1 0 0 1 242.86 405.1377)" class="st5 st6">L</text>
				<text transform="matrix(1 0 0 1 243.5111 405.1376)" class="st5 st6">B</text>
			</g>
		</g>
	</g>
	<g id="Calque_4">
		<text transform="matrix(1 0 0 1 84.3745 195.8726)" class="st7 st8 st9">EHRSAM</text>
		<g>
			<path class="st1" d="M139.2,164.1l-4.6,19.7h-57v-2.2c3.9-0.4,6.6-1.1,8-2.2c1.9-1.6,2.8-4.6,2.8-9.1v-53.5
				c0-4.7-0.9-7.8-2.8-9.3c-1.2-1-3.9-1.7-8-2.1v-2.2h56.1l0.3,16.4h-2.3c-0.9-5.6-2.3-9.1-4.2-10.5c-1.9-1.5-5.9-2.2-12.1-2.2H99.7
				c-2,0-3.1,0.1-3.3,0.2c-0.7,0.4-1.1,1.7-1.1,3.9v28.1h17.9c4.7,0,7.8-0.8,9.3-2.4c1.2-1.3,2.2-4.3,2.8-8.9h2.3V155h-2.3
				c-0.7-5-1.7-8.1-3.1-9.4c-1.5-1.4-4.5-2.1-9.1-2.1H95.3v30.4c0,2.6,0.9,4.3,2.8,5c1.8,0.6,6.9,0.9,15.3,0.9
				c6.8,0,11.7-1.1,14.9-3.3c3.1-2.2,6-6.4,8.5-12.7h2.4V164.1z"/>
			<path class="st1" d="M214.6,183.8h-28.3v-2.2c4.3-0.4,7.2-1.5,8.6-3.5c1.3-1.8,2-5.2,2-10.2v-24h-36.5v25.5
				c0,4.2,0.8,7.2,2.4,8.9c1.5,1.8,4.4,2.8,8.6,3.3v2.2h-28.7v-2.2c4.4-0.4,7.3-1.5,8.6-3.5c1.4-1.8,2.1-5.2,2.1-10.2v-51.7
				c0-4.4-0.8-7.3-2.4-8.6c-1.1-0.9-3.9-1.7-8.3-2.2v-2.1h28.7v2.1c-4.5,0.5-7.4,1.3-8.5,2.3c-1.7,1.4-2.5,4.2-2.5,8.5V140h36.5
				v-23.8c0-4.4-0.8-7.3-2.4-8.6c-1.2-0.9-3.9-1.7-8.2-2.2v-2.1h28.3v2.1c-4.4,0.5-7.3,1.3-8.4,2.3c-1.7,1.4-2.5,4.2-2.5,8.5v53.3
				c0,4.2,0.8,7.2,2.4,8.9c1.5,1.8,4.3,2.8,8.5,3.3L214.6,183.8L214.6,183.8z"/>
			<path class="st1" d="M245,145.6l-9.2,0.4v23.4c0,4.3,0.8,7.3,2.4,9.1c1.5,1.7,4.4,2.7,8.6,3.1v2.2h-28.4v-2.2
				c4.2-0.4,7-1.6,8.4-3.5c1.4-1.8,2.1-5.2,2.1-10.2v-50.1c0-4.6-0.8-7.8-2.4-9.5c-1.3-1.5-4-2.4-8.1-2.8v-2.2h29.1
				c6.8,0,12.4,1.2,16.7,3.5c6.5,3.5,9.7,9.4,9.7,17.6c0,6.9-2.6,12.1-7.8,15.5c-2.9,2-7.1,3.5-12.6,4.5L245,145.6z M266.3,124.2
				c0-7.6-3.4-12.6-10.1-15.2c-3.8-1.6-8.2-2.3-13.2-2c-2.9,0.1-4.7,0.4-5.5,0.8c-1.2,0.7-1.8,2.2-1.8,4.5v30c8.7-0.1,15-0.8,19-2.3
				C262.5,137.3,266.3,132,266.3,124.2z"/>
			<path class="st1" d="M338.7,163.7c0,5.8-1.8,10.6-5.2,14.5c-4.2,4.7-9.8,7-17,7c-3.1,0-6.3-0.7-9.5-2.2c-3.1-1.3-5-2-5.7-2
				c-2.5,0-3.9,1.3-4.2,4h-2.4l-3.3-24.8h2.5c4.2,14.4,11.4,21.5,21.5,21.5c4.3,0,8-1.5,11-4.6c2.8-2.9,4.3-6.2,4.3-9.8
				c0-3.8-1.1-7.1-3.3-10c-2.6-3.1-7.7-7.4-15.5-12.7c-6.4-4.3-10.5-7.5-12.2-9.5c-3.4-3.6-5.1-8.1-5.1-13.5
				c0-6.4,1.9-11.5,5.8-15.2c3.5-3.4,7.8-5.1,13-5.1c2.4,0,5.4,0.7,9,2.1c3.5,1.4,5.5,2.1,6,2.1c1.4,0,2.2-0.5,2.5-1.5
				c0.1-0.9,0.3-1.8,0.5-2.6h2.4l2.4,24.9h-2.6c-1.2-6-3.2-10.9-6.2-14.8c-3.7-4.7-8.2-7-13.5-7c-3.2,0-6.1,1-8.5,3
				c-3,2.5-4.5,5.7-4.5,9.7c0,5.2,3.2,10.2,9.5,15.2c5.9,4.2,11.8,8.5,17.8,12.8C334.9,150.9,338.3,157,338.7,163.7z"/>
			<path class="st1" d="M349.3,183.8h28.9c0,0-5.2-0.9-6.2-1.8c-1.6-1.2-2.5-3.6-2.5-5.9c0-1.8,0.6-4.4,1.9-7.9l3.9-10.8h30.6
				l5.5,13.9c0.4,0.9,1.6,4.2,1.5,6.3c-0.3,4.1-3.4,5.2-3.4,5.2s-1.7,0.8-3.4,0.9c0,0,4.3,0.2,12.7-0.2c0.2-0.2,0.5-0.6,0.7-1.2
				c0.1-0.4,0.1-0.7,0.2-1c0-0.4,0-1-0.1-1.8c0.1-0.9-4.5-8.8-7.8-17.7l-22.1-60h-0.4l-25.9,69c-1.3,3.6-2.5,6.2-5.1,9.2
				C355.5,182.4,354.1,183.5,349.3,183.8z M376.7,153.4l13.8-40.1l14.4,40.1H376.7z"/>
			<path class="st1" d="M512.1,183.8h-28.5v-2.2c4.4-0.4,7.4-1.3,8.9-2.8c1.5-1.6,2.2-4.9,2.2-10v-59.5l-1.1,0.7L465,183.8h-0.9
				l-27.9-73.7l-0.8-0.2v56.5c0,6.2,0.8,10.3,2.5,12.2c1.3,1.6,4.1,2.6,8.3,3v2.2h-23.8v-2.2c4.3-0.4,7-1.4,8-3s1.5-5.7,1.5-12.2
				v-50.2c0-4.9-0.5-7.9-1.5-9.2c-0.9-0.9-3.5-1.4-7.8-1.6v-2.1h18.8l25,67.3l25.7-67.3h19.8v2.1c-4.1,0.4-6.7,0.9-7.9,1.8
				c-2,1.5-3,4.5-3,9.1v54.1c0,4.4,1,7.5,3,9.1c1.3,1.1,3.9,1.8,7.9,2.2v2.1H512.1z"/>
		</g>
		<g class="st1">
			<path d="M146.9,182.9l-4.6,19.7h-57v-2.2c3.9-0.4,6.6-1.1,8-2.2c1.9-1.6,2.8-4.6,2.8-9.1v-53.5c0-4.7-0.9-7.8-2.8-9.3
				c-1.2-1-3.9-1.7-8-2.1V122h56.1l0.3,16.4h-2.3c-0.9-5.6-2.3-9.1-4.2-10.5c-1.9-1.5-5.9-2.2-12.1-2.2h-15.8c-2,0-3.1,0.1-3.3,0.2
				c-0.7,0.4-1.1,1.7-1.1,3.9V158H121c4.7,0,7.8-0.8,9.3-2.4c1.2-1.3,2.2-4.3,2.8-8.9h2.3V174h-2.3c-0.7-5-1.7-8.1-3.1-9.4
				c-1.5-1.4-4.5-2.1-9.1-2.1H103v30.4c0,2.6,0.9,4.3,2.8,5c1.8,0.6,6.9,0.9,15.3,0.9c6.8,0,11.7-1.1,14.9-3.3
				c3.1-2.2,6-6.4,8.5-12.7h2.4V182.9z"/>
			<path d="M222.3,202.5H194v-2.2c4.3-0.4,7.2-1.5,8.6-3.5c1.3-1.8,2-5.2,2-10.2v-24H168v25.5c0,4.2,0.8,7.2,2.4,8.9
				c1.5,1.8,4.4,2.8,8.6,3.3v2.2h-28.7v-2.2c4.4-0.4,7.3-1.5,8.6-3.5c1.4-1.8,2.1-5.2,2.1-10.2V135c0-4.4-0.8-7.3-2.4-8.6
				c-1.1-0.9-3.9-1.7-8.3-2.2V122H179v2.1c-4.5,0.5-7.4,1.3-8.5,2.3c-1.7,1.4-2.5,4.2-2.5,8.5v23.8h36.5V135c0-4.4-0.8-7.3-2.4-8.6
				c-1.2-0.9-3.9-1.7-8.2-2.2V122h28.3v2.1c-4.4,0.5-7.3,1.3-8.4,2.3c-1.7,1.4-2.5,4.2-2.5,8.5v53.3c0,4.2,0.8,7.2,2.4,8.9
				c1.5,1.8,4.3,2.8,8.5,3.3L222.3,202.5L222.3,202.5z"/>
			<path d="M252.7,164.4l-9.2,0.4v23.4c0,4.3,0.8,7.3,2.4,9.1c1.5,1.7,4.4,2.7,8.6,3.1v2.2h-28.4v-2.2c4.2-0.4,7-1.6,8.4-3.5
				c1.4-1.8,2.1-5.2,2.1-10.2v-50.1c0-4.6-0.8-7.8-2.4-9.5c-1.3-1.5-4-2.4-8.1-2.8V122h29.1c6.8,0,12.4,1.2,16.7,3.5
				c6.5,3.5,9.7,9.4,9.7,17.6c0,6.9-2.6,12.1-7.8,15.5c-2,1.4-4.6,2.5-7.9,3.4c-0.7,0.2-1.4,0.4-2.1,0.5c-0.8,0.2-1.7,0.4-2.6,0.5
				 M274,142.9c0-7.6-3.4-12.6-10.1-15.2c-3.8-1.6-8.2-2.3-13.2-2c-2.9,0.1-4.7,0.4-5.5,0.8c-1.2,0.7-1.8,2.2-1.8,4.5v30
				c8.7-0.1,15-0.8,19-2.3C270.2,156,274,150.7,274,142.9z"/>
			<path d="M331.9,182.4c0,5.8-1.8,10.6-5.2,14.5c-4.2,4.7-9.8,7-17,7c-3.1,0-6.3-0.7-9.5-2.2c-3.1-1.3-5.8-2.2-6.5-2.2
				c-0.9,0.1-0.4,1.2,0.6,4.2h-3.4l-2.2-5c-1.8-4.3-3.4-8.8-4.2-13.4l-1.4-6.4l4,0c4.2,14.4,11.4,21.5,21.5,21.5c4.3,0,8-1.5,11-4.6
				c2.8-2.9,4.3-6.2,4.3-9.8c0-3.8-1.1-7.1-3.3-10c-2.6-3.1-7.7-7.4-15.5-12.7c-6.4-4.3-10.5-7.5-12.2-9.5
				c-3.4-3.6-5.1-8.1-5.1-13.5c0-6.4,1.9-11.5,5.8-15.2c3.5-3.4,7.8-5.1,13-5.1c2.4,0,5.4,0.7,9,2.1c3.5,1.4,5.5,2.1,6,2.1
				c1.4,0,2.2-0.5,2.5-1.5c0.1-0.9,0.3-1.8,0.5-2.6h2.4l2.4,24.9h-2.6c-1.2-6-3.2-10.9-6.2-14.8c-3.7-4.7-8.2-7-13.5-7
				c-3.2,0-6.1,1-8.5,3c-3,2.5-4.5,5.7-4.5,9.7c0,5.2,3.2,10.2,9.5,15.2c5.9,4.2,11.8,8.5,17.8,12.8
				C328.1,169.7,331.6,175.8,331.9,182.4z"/>
			<path d="M408.3,187c0,0-2.5-6.3-3.9-10.8h-30.6l-3.4,8.7c-0.9,3.2-5.7,15-5.7,11.4c0.1-3.4,1.8-11.5,3.3-15.6l22.1-60h0.4
				l25.9,69c1,2.7,2.6,7.5,2.6,7.5c0.9,2.7,0.7,5-1.7,5.5c-1.6,0.3-3.8-1.3-6-7.8L408.3,187z M404.4,176.2
				c-5.1-14.7-10.1-29.5-15.2-44.2c-5.1,14.7-10.3,29.5-15.4,44.2C384,176.2,394.2,176.2,404.4,176.2z"/>
			<path d="M507,201.2h-28.5V199c4.4-0.4,7.4-1.3,8.9-2.8c1.5-1.6,2.2-4.9,2.2-10v-59.5l-1.1,0.7L460,201.2h-0.9l-27.9-73.7
				l-0.8-0.2l0.1,34.5c0,0.3-0.3,0.4-0.5,0.2l-2.7-2.4c-0.4-0.3-0.6-0.8-0.6-1.4l0.2-24.6c0-4.9-0.5-7.9-1.5-9.2
				c-0.9-0.9-3.5-1.4-7.8-1.6v-2.1h18.8l25,67.3l25.7-67.3H507v2.1c-4.1,0.4-6.7,0.9-7.9,1.8c-2,1.5-3,4.5-3,9.1v54.1
				c0,4.4,1,7.5,3,9.1c1.3,1.1,3.9,1.8,7.9,2.2V201.2z"/>
		</g>
		<g class="st1">
			<path d="M271.8,158.4c5.6,5.8,6.3,14.1,8.1,21.4c4.2,21.9,12.4,38.9,34.5,46.9c9.8,3.6,20.4,4.8,30.8,5.2
				c17.4,0.8,35.2-0.3,52.1-4.9c15.7-4.4,33.5-13.4,36.9-30.6c1.6-8.1-0.6-16.8-4.3-24.1c-7.5-14.5-26-14.9-38.9-7.4
				c-12,6.6-20.4,18.8-23.6,32.1c-0.4,1.7-3,1.1-2.7-0.6c4-21.4,22.8-41.1,45.6-40.5c9.6,0.2,18.9,5.7,23.4,14.3
				c4.3,8.3,6.6,17.8,4.9,27.1c-2,11.3-10.6,20.2-20.3,25.6c-25.4,13.5-56.1,13-84,11.3c-14.3-1.3-29-5.2-40.2-14.8
				c-11.3-9.5-16.9-24.2-20.3-38.1c-0.9-3.4-1.7-6.8-2.8-10c-1-2.8-2-5.7-4.1-7.7C263.6,160.3,268.3,155.2,271.8,158.4L271.8,158.4z
				"/>
		</g>
	</g>
</g>
<g id="Calque_2" class="st0">
	<text transform="matrix(1 0 0 1 234.2728 320.8909)" class="st8 st10">C</text>
	<path id="SVGID_x5F_1_x5F_" class="st11" d="M341.6,272c5-35-12.5-66.5-39.3-70.3S249.7,223,244.7,258c-5,35,12.5,66.5,39.3,70.3
		C310.7,332.2,336.5,307,341.6,272z"/>
	<text class="st1">	<textPath  xlink:href="#SVGID_x5F_1_x5F_" startOffset="88.0697%">
<tspan  style="font-family:'Bahnschrift'; font-size:10px; letter-spacing:93;">CHARLES  CHRISMANN</tspan>	</textPath>
</text>
	<path class="st12" d="M217.7,323.3l151.6-121.6L217.7,323.3z"/>
	<g class="st1">
		<path d="M332.1,231.5c-6.5-17.8-18-26.6-34.4-26.6c-5.5,0-11.1,1-16.9,3c-6.3,2.5-11.3,5.6-14.9,9.5
			c-9.7,10.9-14.7,27.4-14.8,49.6c-0.1,9.8,1.2,18.6,3.9,26.3 M245,301.4c-4.3-9.7-6.5-21.4-6.5-34.9c0-20.7,6-37.4,17.9-50.1
			c10.9-11.5,24.2-17.2,39.9-17.2c6.2,0,12.8,1.1,19.7,3.2c6.9,2.1,10.5,3.2,10.7,3.2c3,0,5.1-2,6.2-6l4.6-0.4l0.9,27.3"/>
	</g>
</g>
<g id="Calque_3_00000135675402587897862700000017368171834047891375_">
	<path id="SVGID_x5F_00000096755113553195717700000002838668360386282891_x5F_" class="st13" d="M529.7,297.6
		c0,128.2-103.9,232.1-232.1,232.1S65.6,425.8,65.6,297.6S169.5,65.6,297.6,65.6S529.7,169.5,529.7,297.6z"/>
	<text>	<textPath  xlink:href="#SVGID_x5F_00000096755113553195717700000002838668360386282891_x5F_" startOffset="78.3854%">
<tspan  style="font-family:'MyriadPro-Bold'; font-size:41px; letter-spacing:-1;">16e</tspan><tspan  style="font-family:'MyriadPro-Regular'; font-size:41px; letter-spacing:-1;"> arrondissement / </tspan><tspan  style="font-family:'MyriadPro-Bold'; font-size:41px; letter-spacing:-1;">16e</tspan><tspan  style="font-family:'MyriadPro-Regular'; font-size:41px; letter-spacing:-1;"> arrondissement / </tspan><tspan  style="font-family:'MyriadPro-Bold'; font-size:41px; letter-spacing:-1;">16e</tspan><tspan  style="font-family:'MyriadPro-Regular'; font-size:41px; letter-spacing:-1;"> arrondissement / </tspan><tspan  style="font-family:'MyriadPro-Bold'; font-size:41px; letter-spacing:-1;">16e</tspan><tspan  style="font-family:'MyriadPro-Regular'; font-size:41px; letter-spacing:-1;"> arrondissement / </tspan>	</textPath>
</text>
</g>
</svg>
